# xmcd CD database file
#
# Track frame offsets:
#	150
#	16667
#	31171
#	50955
#	86496
#	100644
#	132284
#	147011
#	160595
#	177091
#
# Disc length: 2553 seconds
#
# Revision: 0
# Processed by: cddbd v1.5.1PL0 Copyright (c) Steve Scherf et al.
# Submitted via: CDex 1.51
#
DISCID=7009f70a
DTITLE=Modern Jazz Quartet - Modern Jazz Quartet Disc 1
DYEAR=1972
DGENRE=Jazz
TTITLE0=Concorde
TTITLE1=Vendome
TTITLE2=Milano
TTITLE3=Gershwin Medley (Soon - Fo You, For Me, For Evermore - Our Love Is Here To Stay)
TTITLE4=La Ronde 
TTITLE5=Django
TTITLE6=All The Best Thngs You Are
TTITLE7=One Bass Hit
TTITLE8=Autumn In New York
TTITLE9=The Queen's Fancy
EXTD=YEAR: 1972
EXTT0=
EXTT1=
EXTT2=
EXTT3=
EXTT4=
EXTT5=
EXTT6=
EXTT7=
EXTT8=
EXTT9=
PLAYORDER=
